<svg xmlns="http://www.w3.org/2000/svg" viewBox="0 0 291.5 355.1"><defs><style>.cls-1{fill:#eaeaea;}.cls-2{fill:#fff;}.cls-2,.cls-3{stroke:#292929;stroke-linecap:round;stroke-linejoin:round;stroke-width:7px;}.cls-3{fill:#3167b5;}</style></defs><title>Ресурс 2</title><g id="Слой_2" data-name="Слой 2"><g id="Layer_1" data-name="Layer 1"><path class="cls-1" d="M134.5,17.5C42.5,17.5,0,41.81,0,41.81v179C0,296.36,133.85,355.36,134.5,355.1c.65.26,135.5-58.73,135.5-134.25v-179S226.5,17.5,134.5,17.5Z"/><path class="cls-2" d="M152.5,3.5C60.5,3.5,18,27.81,18,27.81v179c0,75.51,133.85,134.51,134.5,134.25.65.26,135.5-58.73,135.5-134.25v-179S244.5,3.5,152.5,3.5Z"/><line class="cls-2" x1="20.43" y1="56.37" x2="100" y2="56.37"/><line class="cls-2" x1="20.12" y1="78.15" x2="83.17" y2="78.15"/><line class="cls-2" x1="20.43" y1="99.93" x2="65.72" y2="99.93"/><polygon class="cls-3" points="166 58.5 75 167.5 174 164.5 122 264.5 235 142.5 137 145.5 166 58.5"/><line class="cls-2" x1="155" y1="3.5" x2="155" y2="42.5"/><line class="cls-2" x1="153" y1="271.5" x2="153" y2="340.5"/></g></g></svg>