<svg xmlns="http://www.w3.org/2000/svg" viewBox="0 0 402.92 315.52"><defs><style>.cls-1{isolation:isolate;}.cls-2{fill:#eaeaea;}.cls-3,.cls-5,.cls-8{fill:#fff;}.cls-3,.cls-4,.cls-5{stroke:#292929;}.cls-3,.cls-4{stroke-miterlimit:10;}.cls-3,.cls-5{stroke-width:7px;}.cls-4{fill:#292929;stroke-width:2px;}.cls-5{stroke-linecap:round;stroke-linejoin:round;}.cls-6{fill:#3167b5;}.cls-6,.cls-7{mix-blend-mode:darken;}.cls-7{fill:#88b0e6;}.cls-8{font-size:45px;font-family:GothamBlack, GothamBlack;}</style></defs><title>protection</title><g class="cls-1"><g id="Слой_2" data-name="Слой 2"><g id="Layer_1" data-name="Layer 1"><rect class="cls-2" y="131.5" width="381.42" height="117" rx="5" ry="5"/><rect class="cls-3" x="18" y="110.5" width="381.42" height="117" rx="5" ry="5"/><rect class="cls-3" x="139.71" y="89" width="138" height="148.5" rx="5" ry="5"/><rect class="cls-3" x="170.53" y="60.5" width="76.36" height="28" rx="5" ry="5"/><path class="cls-3" d="M394.34,32.5h-84l-63.45,30H173.05A1.17,1.17,0,0,1,172,60.9l8.38-21.4a10.53,10.53,0,0,1,10-5h44.55l75.45-31h84a5,5,0,0,1,5,5v19A5,5,0,0,1,394.34,32.5Z"/><path class="cls-3" d="M209.34,9.5h0a14,14,0,0,1,14,14v8.17a2.83,2.83,0,0,1-2.83,2.83H198.17a2.83,2.83,0,0,1-2.83-2.83V23.5a14,14,0,0,1,14-14Z"/><path class="cls-4" d="M77.07,243a2.41,2.41,0,0,0-2,1.27c-4.65,8.81-10,16.39-14.2,23.48s-7.42,13.85-7.42,21c0,14.11,10.53,25.74,23.72,25.74s23.69-11.63,23.69-25.74c0-7.18-3.22-13.91-7.45-21s-9.52-14.67-14.17-23.48A2.48,2.48,0,0,0,77.07,243Zm0,7.07c4.23,7.52,8.68,14.22,12.18,20.13,4.09,6.87,6.81,12.87,6.81,18.58,0,11.74-8.57,21-19,21s-19-9.24-19-21c0-5.72,2.69-11.71,6.78-18.58,3.5-5.91,7.92-12.62,12.18-20.13ZM66.28,286.64a2.5,2.5,0,0,0-2.1,3,19.06,19.06,0,0,0,5.13,9.15,14.18,14.18,0,0,0,9.83,3.75,2.39,2.39,0,1,0,0-4.79,9.09,9.09,0,0,1-6.61-2.48,14.5,14.5,0,0,1-3.78-6.84,2.45,2.45,0,0,0-2.46-1.83Z"/><polyline class="cls-5" points="108.84 155 69.84 186 95.84 199 75.11 227.5"/><line class="cls-5" x1="278.27" y1="138.87" x2="341.34" y2="138.87"/><line class="cls-5" x1="22.27" y1="138.87" x2="85.34" y2="138.87"/><line class="cls-5" x1="383.34" y1="138.87" x2="395.34" y2="138.87"/><line class="cls-5" x1="356.34" y1="138.87" x2="368.34" y2="138.87"/><path class="cls-6" d="M76.34,248.5s-25,26-20,43,7,17,17,19,27-8,24-19-15-32-15-32Z"/><path class="cls-5" d="M210.34,192.5H183.86a9.71,9.71,0,0,1-8.41-14.57L188.69,155l13.24-22.93a9.71,9.71,0,0,1,16.82,0L232,155l13.24,22.93a9.71,9.71,0,0,1-8.41,14.57Z"/><path class="cls-7" d="M210.34,193.5H183.86a9.71,9.71,0,0,1-8.41-14.57L188.69,156l13.24-22.93a9.71,9.71,0,0,1,16.82,0L232,156l13.24,22.93a9.71,9.71,0,0,1-8.41,14.57Z"/><text class="cls-8" transform="translate(202.84 179)">!</text></g></g></g></svg>